<svg xmlns="http://www.w3.org/2000/svg" viewBox="0 0 48 48" x="0px" y="0px"><path d="M38,4H10a6,6,0,0,0-6,6V38a6,6,0,0,0,6,6H38a6,6,0,0,0,6-6V10A6,6,0,0,0,38,4Zm2,34a2,2,0,0,1-2,2H10a2,2,0,0,1-2-2V10a2,2,0,0,1,2-2H38a2,2,0,0,1,2,2Z"/><text x="68" y="68" fill="#000000" font-size="5px" font-weight="bold" font-family="'Helvetica Neue', Helvetica, Arial-Unicode, Arial, Sans-serif">Created by Martin Sturk</text><text x="68" y="68" fill="#000000" font-size="5px" font-weight="bold" font-family="'Helvetica Neue', Helvetica, Arial-Unicode, Arial, Sans-serif">from the Noun Project</text></svg>